# MagicaVoxel @ ephtracy

# material
mtllib sword.mtl
usemtl palette

# normals
vn -1 0 0
vn 1 0 0
vn 0 0 1
vn 0 0 -1
vn 0 -1 0
vn 0 1 0

# texcoords
vt 0.978516 0.5
vt 0.986328 0.5
vt 0.990234 0.5
vt 0.994141 0.5

# verts
v -8.5 0 13.5
v -8.5 0 12.5
v -8.5 3 13.5
v -8.5 3 12.5
v -7.5 1 14.5
v -7.5 1 13.5
v -7.5 1 12.5
v -7.5 1 11.5
v -7.5 2 14.5
v -7.5 2 13.5
v -7.5 2 12.5
v -7.5 2 11.5
v -3.5 1 11.5
v -3.5 1 -19.5
v -3.5 2 11.5
v -3.5 2 -19.5
v -2.5 0 15.5
v -2.5 0 13.5
v -2.5 1 21.5
v -2.5 1 15.5
v -2.5 1 14.5
v -2.5 1 13.5
v -2.5 1 -19.5
v -2.5 1 -20.5
v -2.5 2 21.5
v -2.5 2 15.5
v -2.5 2 14.5
v -2.5 2 13.5
v -2.5 2 -19.5
v -2.5 2 -20.5
v -2.5 3 15.5
v -2.5 3 13.5
v -1.5 0 22.5
v -1.5 0 16.5
v -1.5 1 21.5
v -1.5 1 16.5
v -1.5 1 -20.5
v -1.5 1 -21.5
v -1.5 2 21.5
v -1.5 2 16.5
v -1.5 2 -20.5
v -1.5 2 -21.5
v -1.5 3 22.5
v -1.5 3 16.5
v -0.5 0 16.5
v -0.5 0 15.5
v -0.5 1 16.5
v -0.5 1 15.5
v -0.5 1 -21.5
v -0.5 1 -22.5
v -0.5 2 16.5
v -0.5 2 15.5
v -0.5 2 -21.5
v -0.5 2 -22.5
v -0.5 3 16.5
v -0.5 3 15.5
v 0.5 0 16.5
v 0.5 0 15.5
v 0.5 1 16.5
v 0.5 1 15.5
v 0.5 1 -21.5
v 0.5 1 -22.5
v 0.5 2 16.5
v 0.5 2 15.5
v 0.5 2 -21.5
v 0.5 2 -22.5
v 0.5 3 16.5
v 0.5 3 15.5
v 1.5 0 22.5
v 1.5 0 16.5
v 1.5 1 21.5
v 1.5 1 16.5
v 1.5 1 -20.5
v 1.5 1 -21.5
v 1.5 2 21.5
v 1.5 2 16.5
v 1.5 2 -20.5
v 1.5 2 -21.5
v 1.5 3 22.5
v 1.5 3 16.5
v 2.5 0 15.5
v 2.5 0 13.5
v 2.5 1 21.5
v 2.5 1 15.5
v 2.5 1 14.5
v 2.5 1 13.5
v 2.5 1 -19.5
v 2.5 1 -20.5
v 2.5 2 21.5
v 2.5 2 15.5
v 2.5 2 14.5
v 2.5 2 13.5
v 2.5 2 -19.5
v 2.5 2 -20.5
v 2.5 3 15.5
v 2.5 3 13.5
v 3.5 1 11.5
v 3.5 1 -19.5
v 3.5 2 11.5
v 3.5 2 -19.5
v 7.5 1 14.5
v 7.5 1 13.5
v 7.5 1 12.5
v 7.5 1 11.5
v 7.5 2 14.5
v 7.5 2 13.5
v 7.5 2 12.5
v 7.5 2 11.5
v 8.5 0 13.5
v 8.5 0 12.5
v 8.5 3 13.5
v 8.5 3 12.5
v -1.5 0 22.5
v -1.5 3 22.5
v 1.5 0 22.5
v 1.5 3 22.5
v -2.5 1 21.5
v -2.5 2 21.5
v -1.5 1 21.5
v -1.5 2 21.5
v 1.5 1 21.5
v 1.5 2 21.5
v 2.5 1 21.5
v 2.5 2 21.5
v -2.5 0 15.5
v -2.5 1 15.5
v -2.5 2 15.5
v -2.5 3 15.5
v -0.5 0 15.5
v -0.5 1 15.5
v -0.5 2 15.5
v -0.5 3 15.5
v 0.5 0 15.5
v 0.5 1 15.5
v 0.5 2 15.5
v 0.5 3 15.5
v 2.5 0 15.5
v 2.5 1 15.5
v 2.5 2 15.5
v 2.5 3 15.5
v -7.5 1 14.5
v -7.5 2 14.5
v -2.5 1 14.5
v -2.5 2 14.5
v 2.5 1 14.5
v 2.5 2 14.5
v 7.5 1 14.5
v 7.5 2 14.5
v -8.5 0 13.5
v -8.5 3 13.5
v -7.5 1 13.5
v -7.5 2 13.5
v -2.5 0 13.5
v -2.5 1 13.5
v -2.5 2 13.5
v -2.5 3 13.5
v 2.5 0 13.5
v 2.5 1 13.5
v 2.5 2 13.5
v 2.5 3 13.5
v 7.5 1 13.5
v 7.5 2 13.5
v 8.5 0 13.5
v 8.5 3 13.5
v -1.5 0 16.5
v -1.5 1 16.5
v -1.5 2 16.5
v -1.5 3 16.5
v -0.5 0 16.5
v -0.5 1 16.5
v -0.5 2 16.5
v -0.5 3 16.5
v 0.5 0 16.5
v 0.5 1 16.5
v 0.5 2 16.5
v 0.5 3 16.5
v 1.5 0 16.5
v 1.5 1 16.5
v 1.5 2 16.5
v 1.5 3 16.5
v -8.5 0 12.5
v -8.5 3 12.5
v -7.5 1 12.5
v -7.5 2 12.5
v -0.5 0 12.5
v -0.5 1 12.5
v -0.5 2 12.5
v -0.5 3 12.5
v 0.5 0 12.5
v 0.5 1 12.5
v 0.5 2 12.5
v 0.5 3 12.5
v 7.5 1 12.5
v 7.5 2 12.5
v 8.5 0 12.5
v 8.5 3 12.5
v -7.5 1 11.5
v -7.5 2 11.5
v -3.5 1 11.5
v -3.5 2 11.5
v 3.5 1 11.5
v 3.5 2 11.5
v 7.5 1 11.5
v 7.5 2 11.5
v -3.5 1 -19.5
v -3.5 2 -19.5
v -2.5 1 -19.5
v -2.5 2 -19.5
v 2.5 1 -19.5
v 2.5 2 -19.5
v 3.5 1 -19.5
v 3.5 2 -19.5
v -2.5 1 -20.5
v -2.5 2 -20.5
v -1.5 1 -20.5
v -1.5 2 -20.5
v 1.5 1 -20.5
v 1.5 2 -20.5
v 2.5 1 -20.5
v 2.5 2 -20.5
v -1.5 1 -21.5
v -1.5 2 -21.5
v -0.5 1 -21.5
v -0.5 2 -21.5
v 0.5 1 -21.5
v 0.5 2 -21.5
v 1.5 1 -21.5
v 1.5 2 -21.5
v -0.5 1 -22.5
v -0.5 2 -22.5
v 0.5 1 -22.5
v 0.5 2 -22.5
v -1.5 0 22.5
v 1.5 0 22.5
v -1.5 0 16.5
v -0.5 0 16.5
v 0.5 0 16.5
v 1.5 0 16.5
v -2.5 0 15.5
v -0.5 0 15.5
v 0.5 0 15.5
v 2.5 0 15.5
v -0.5 0 14.5
v 0.5 0 14.5
v -8.5 0 13.5
v -2.5 0 13.5
v 2.5 0 13.5
v 8.5 0 13.5
v -8.5 0 12.5
v -0.5 0 12.5
v 0.5 0 12.5
v 8.5 0 12.5
v -2.5 1 21.5
v -1.5 1 21.5
v 1.5 1 21.5
v 2.5 1 21.5
v -1.5 1 16.5
v -0.5 1 16.5
v 0.5 1 16.5
v 1.5 1 16.5
v -2.5 1 15.5
v -0.5 1 15.5
v 0.5 1 15.5
v 2.5 1 15.5
v -7.5 1 14.5
v -2.5 1 14.5
v 2.5 1 14.5
v 7.5 1 14.5
v -7.5 1 13.5
v -2.5 1 13.5
v 2.5 1 13.5
v 7.5 1 13.5
v -7.5 1 12.5
v -0.5 1 12.5
v 0.5 1 12.5
v 7.5 1 12.5
v -7.5 1 11.5
v -3.5 1 11.5
v -1.5 1 11.5
v 1.5 1 11.5
v 3.5 1 11.5
v 7.5 1 11.5
v -1.5 1 -18.5
v -0.5 1 -18.5
v 0.5 1 -18.5
v 1.5 1 -18.5
v -3.5 1 -19.5
v -2.5 1 -19.5
v -0.5 1 -19.5
v 0.5 1 -19.5
v 2.5 1 -19.5
v 3.5 1 -19.5
v -2.5 1 -20.5
v -1.5 1 -20.5
v 1.5 1 -20.5
v 2.5 1 -20.5
v -1.5 1 -21.5
v -0.5 1 -21.5
v 0.5 1 -21.5
v 1.5 1 -21.5
v -0.5 1 -22.5
v 0.5 1 -22.5
v -2.5 2 21.5
v -1.5 2 21.5
v 1.5 2 21.5
v 2.5 2 21.5
v -1.5 2 16.5
v -0.5 2 16.5
v 0.5 2 16.5
v 1.5 2 16.5
v -2.5 2 15.5
v -0.5 2 15.5
v 0.5 2 15.5
v 2.5 2 15.5
v -7.5 2 14.5
v -2.5 2 14.5
v 2.5 2 14.5
v 7.5 2 14.5
v -7.5 2 13.5
v -2.5 2 13.5
v 2.5 2 13.5
v 7.5 2 13.5
v -7.5 2 12.5
v -0.5 2 12.5
v 0.5 2 12.5
v 7.5 2 12.5
v -7.5 2 11.5
v -3.5 2 11.5
v -1.5 2 11.5
v 1.5 2 11.5
v 3.5 2 11.5
v 7.5 2 11.5
v -1.5 2 -18.5
v -0.5 2 -18.5
v 0.5 2 -18.5
v 1.5 2 -18.5
v -3.5 2 -19.5
v -2.5 2 -19.5
v -0.5 2 -19.5
v 0.5 2 -19.5
v 2.5 2 -19.5
v 3.5 2 -19.5
v -2.5 2 -20.5
v -1.5 2 -20.5
v 1.5 2 -20.5
v 2.5 2 -20.5
v -1.5 2 -21.5
v -0.5 2 -21.5
v 0.5 2 -21.5
v 1.5 2 -21.5
v -0.5 2 -22.5
v 0.5 2 -22.5
v -1.5 3 22.5
v 1.5 3 22.5
v -1.5 3 16.5
v -0.5 3 16.5
v 0.5 3 16.5
v 1.5 3 16.5
v -2.5 3 15.5
v -0.5 3 15.5
v 0.5 3 15.5
v 2.5 3 15.5
v -0.5 3 14.5
v 0.5 3 14.5
v -8.5 3 13.5
v -2.5 3 13.5
v 2.5 3 13.5
v 8.5 3 13.5
v -8.5 3 12.5
v -0.5 3 12.5
v 0.5 3 12.5
v 8.5 3 12.5

# faces
f 3/4/1 2/4/1 1/4/1
f 4/4/1 2/4/1 3/4/1
f 9/4/1 6/4/1 5/4/1
f 10/4/1 6/4/1 9/4/1
f 11/4/1 8/4/1 7/4/1
f 12/4/1 8/4/1 11/4/1
f 15/3/1 14/3/1 13/3/1
f 16/3/1 14/3/1 15/3/1
f 20/4/1 18/4/1 17/4/1
f 21/4/1 18/4/1 20/4/1
f 22/4/1 18/4/1 21/4/1
f 25/4/1 20/4/1 19/4/1
f 25/4/1 21/4/1 20/4/1
f 26/4/1 21/4/1 25/4/1
f 27/4/1 21/4/1 26/4/1
f 29/3/1 24/3/1 23/3/1
f 30/3/1 24/3/1 29/3/1
f 31/4/1 28/4/1 27/4/1
f 31/4/1 27/4/1 26/4/1
f 32/4/1 28/4/1 31/4/1
f 35/4/1 34/4/1 33/4/1
f 36/4/1 34/4/1 35/4/1
f 39/4/1 35/4/1 33/4/1
f 41/3/1 38/3/1 37/3/1
f 42/3/1 38/3/1 41/3/1
f 43/4/1 40/4/1 39/4/1
f 43/4/1 39/4/1 33/4/1
f 44/4/1 40/4/1 43/4/1
f 47/4/1 46/4/1 45/4/1
f 48/4/1 46/4/1 47/4/1
f 53/3/1 50/3/1 49/3/1
f 54/3/1 50/3/1 53/3/1
f 55/4/1 52/4/1 51/4/1
f 56/4/1 52/4/1 55/4/1
f 57/4/2 58/4/2 59/4/2
f 59/4/2 58/4/2 60/4/2
f 61/3/2 62/3/2 65/3/2
f 65/3/2 62/3/2 66/3/2
f 63/4/2 64/4/2 67/4/2
f 67/4/2 64/4/2 68/4/2
f 69/4/2 70/4/2 71/4/2
f 71/4/2 70/4/2 72/4/2
f 69/4/2 71/4/2 75/4/2
f 73/3/2 74/3/2 77/3/2
f 77/3/2 74/3/2 78/3/2
f 75/4/2 76/4/2 79/4/2
f 69/4/2 75/4/2 79/4/2
f 79/4/2 76/4/2 80/4/2
f 81/4/2 82/4/2 84/4/2
f 84/4/2 82/4/2 85/4/2
f 85/4/2 82/4/2 86/4/2
f 83/4/2 84/4/2 89/4/2
f 84/4/2 85/4/2 89/4/2
f 89/4/2 85/4/2 90/4/2
f 90/4/2 85/4/2 91/4/2
f 87/3/2 88/3/2 93/3/2
f 93/3/2 88/3/2 94/3/2
f 91/4/2 92/4/2 95/4/2
f 90/4/2 91/4/2 95/4/2
f 95/4/2 92/4/2 96/4/2
f 97/3/2 98/3/2 99/3/2
f 99/3/2 98/3/2 100/3/2
f 101/4/2 102/4/2 105/4/2
f 105/4/2 102/4/2 106/4/2
f 103/4/2 104/4/2 107/4/2
f 107/4/2 104/4/2 108/4/2
f 109/4/2 110/4/2 111/4/2
f 111/4/2 110/4/2 112/4/2
f 115/4/3 114/4/3 113/4/3
f 116/4/3 114/4/3 115/4/3
f 119/4/3 118/4/3 117/4/3
f 120/4/3 118/4/3 119/4/3
f 123/4/3 122/4/3 121/4/3
f 124/4/3 122/4/3 123/4/3
f 129/4/3 126/4/3 125/4/3
f 130/4/3 126/4/3 129/4/3
f 131/4/3 128/4/3 127/4/3
f 132/4/3 128/4/3 131/4/3
f 137/4/3 134/4/3 133/4/3
f 138/4/3 134/4/3 137/4/3
f 139/4/3 136/4/3 135/4/3
f 140/4/3 136/4/3 139/4/3
f 143/4/3 142/4/3 141/4/3
f 144/4/3 142/4/3 143/4/3
f 147/4/3 146/4/3 145/4/3
f 148/4/3 146/4/3 147/4/3
f 151/4/3 150/4/3 149/4/3
f 152/4/3 150/4/3 151/4/3
f 153/4/3 151/4/3 149/4/3
f 154/4/3 151/4/3 153/4/3
f 155/4/3 150/4/3 152/4/3
f 156/4/3 150/4/3 155/4/3
f 161/4/3 158/4/3 157/4/3
f 162/4/3 160/4/3 159/4/3
f 163/4/3 161/4/3 157/4/3
f 163/4/3 162/4/3 161/4/3
f 164/4/3 160/4/3 162/4/3
f 164/4/3 162/4/3 163/4/3
f 165/4/4 166/4/4 169/4/4
f 169/4/4 166/4/4 170/4/4
f 167/4/4 168/4/4 171/4/4
f 171/4/4 168/4/4 172/4/4
f 173/4/4 174/4/4 177/4/4
f 177/4/4 174/4/4 178/4/4
f 175/4/4 176/4/4 179/4/4
f 179/4/4 176/4/4 180/4/4
f 181/4/4 182/4/4 183/4/4
f 183/4/4 182/4/4 184/4/4
f 181/4/4 183/4/4 185/4/4
f 185/4/4 183/4/4 186/4/4
f 184/4/4 182/4/4 187/4/4
f 187/4/4 182/4/4 188/4/4
f 185/1/4 186/1/4 189/1/4
f 189/1/4 186/1/4 190/1/4
f 187/1/4 188/1/4 191/1/4
f 191/1/4 188/1/4 192/1/4
f 189/4/4 190/4/4 193/4/4
f 191/4/4 192/4/4 194/4/4
f 189/4/4 193/4/4 195/4/4
f 193/4/4 194/4/4 195/4/4
f 194/4/4 192/4/4 196/4/4
f 195/4/4 194/4/4 196/4/4
f 197/4/4 198/4/4 199/4/4
f 199/4/4 198/4/4 200/4/4
f 201/4/4 202/4/4 203/4/4
f 203/4/4 202/4/4 204/4/4
f 205/3/4 206/3/4 207/3/4
f 207/3/4 206/3/4 208/3/4
f 209/3/4 210/3/4 211/3/4
f 211/3/4 210/3/4 212/3/4
f 213/3/4 214/3/4 215/3/4
f 215/3/4 214/3/4 216/3/4
f 217/3/4 218/3/4 219/3/4
f 219/3/4 218/3/4 220/3/4
f 221/3/4 222/3/4 223/3/4
f 223/3/4 222/3/4 224/3/4
f 225/3/4 226/3/4 227/3/4
f 227/3/4 226/3/4 228/3/4
f 229/3/4 230/3/4 231/3/4
f 231/3/4 230/3/4 232/3/4
f 235/4/5 234/4/5 233/4/5
f 236/4/5 234/4/5 235/4/5
f 237/4/5 234/4/5 236/4/5
f 238/4/5 234/4/5 237/4/5
f 240/4/5 237/4/5 236/4/5
f 241/4/5 237/4/5 240/4/5
f 243/4/5 241/4/5 240/4/5
f 243/4/5 242/4/5 241/4/5
f 243/4/5 240/4/5 239/4/5
f 244/4/5 242/4/5 243/4/5
f 246/4/5 243/4/5 239/4/5
f 247/4/5 242/4/5 244/4/5
f 249/4/5 246/4/5 245/4/5
f 250/1/5 244/1/5 243/1/5
f 250/4/5 246/4/5 249/4/5
f 250/4/5 243/4/5 246/4/5
f 251/4/5 248/4/5 247/4/5
f 251/1/5 244/1/5 250/1/5
f 251/4/5 247/4/5 244/4/5
f 252/4/5 248/4/5 251/4/5
f 257/4/5 254/4/5 253/4/5
f 260/4/5 256/4/5 255/4/5
f 261/4/5 258/4/5 257/4/5
f 261/4/5 257/4/5 253/4/5
f 262/4/5 258/4/5 261/4/5
f 263/4/5 260/4/5 259/4/5
f 264/4/5 256/4/5 260/4/5
f 264/4/5 260/4/5 263/4/5
f 269/4/5 266/4/5 265/4/5
f 270/4/5 266/4/5 269/4/5
f 271/4/5 268/4/5 267/4/5
f 272/4/5 268/4/5 271/4/5
f 277/4/5 274/4/5 273/4/5
f 277/4/5 276/4/5 275/4/5
f 277/4/5 275/4/5 274/4/5
f 278/4/5 276/4/5 277/4/5
f 279/4/5 276/4/5 278/4/5
f 280/4/5 276/4/5 279/4/5
f 281/4/5 276/4/5 280/4/5
f 282/4/5 276/4/5 281/4/5
f 283/3/5 279/3/5 278/3/5
f 283/2/5 280/2/5 279/2/5
f 284/2/5 280/2/5 283/2/5
f 285/2/5 280/2/5 284/2/5
f 286/3/5 281/3/5 280/3/5
f 286/2/5 280/2/5 285/2/5
f 287/3/5 283/3/5 278/3/5
f 287/3/5 284/3/5 283/3/5
f 288/3/5 284/3/5 287/3/5
f 289/2/5 285/2/5 284/2/5
f 289/3/5 284/3/5 288/3/5
f 290/3/5 286/3/5 285/3/5
f 290/2/5 285/2/5 289/2/5
f 291/3/5 281/3/5 286/3/5
f 291/3/5 286/3/5 290/3/5
f 292/3/5 281/3/5 291/3/5
f 293/3/5 290/3/5 289/3/5
f 293/3/5 291/3/5 290/3/5
f 293/3/5 289/3/5 288/3/5
f 294/3/5 291/3/5 293/3/5
f 295/3/5 291/3/5 294/3/5
f 296/3/5 291/3/5 295/3/5
f 297/3/5 295/3/5 294/3/5
f 298/3/5 295/3/5 297/3/5
f 299/3/5 295/3/5 298/3/5
f 300/3/5 295/3/5 299/3/5
f 301/3/5 299/3/5 298/3/5
f 302/3/5 299/3/5 301/3/5
f 303/4/6 304/4/6 307/4/6
f 305/4/6 306/4/6 310/4/6
f 307/4/6 308/4/6 311/4/6
f 303/4/6 307/4/6 311/4/6
f 311/4/6 308/4/6 312/4/6
f 309/4/6 310/4/6 313/4/6
f 310/4/6 306/4/6 314/4/6
f 313/4/6 310/4/6 314/4/6
f 315/4/6 316/4/6 319/4/6
f 319/4/6 316/4/6 320/4/6
f 317/4/6 318/4/6 321/4/6
f 321/4/6 318/4/6 322/4/6
f 323/4/6 324/4/6 327/4/6
f 325/4/6 326/4/6 327/4/6
f 324/4/6 325/4/6 327/4/6
f 327/4/6 326/4/6 328/4/6
f 328/4/6 326/4/6 329/4/6
f 329/4/6 326/4/6 330/4/6
f 330/4/6 326/4/6 331/4/6
f 331/4/6 326/4/6 332/4/6
f 328/3/6 329/3/6 333/3/6
f 329/2/6 330/2/6 333/2/6
f 333/2/6 330/2/6 334/2/6
f 334/2/6 330/2/6 335/2/6
f 330/3/6 331/3/6 336/3/6
f 335/2/6 330/2/6 336/2/6
f 328/3/6 333/3/6 337/3/6
f 333/3/6 334/3/6 337/3/6
f 337/3/6 334/3/6 338/3/6
f 334/2/6 335/2/6 339/2/6
f 338/3/6 334/3/6 339/3/6
f 335/3/6 336/3/6 340/3/6
f 339/2/6 335/2/6 340/2/6
f 336/3/6 331/3/6 341/3/6
f 340/3/6 336/3/6 341/3/6
f 341/3/6 331/3/6 342/3/6
f 339/3/6 340/3/6 343/3/6
f 340/3/6 341/3/6 343/3/6
f 338/3/6 339/3/6 343/3/6
f 343/3/6 341/3/6 344/3/6
f 344/3/6 341/3/6 345/3/6
f 345/3/6 341/3/6 346/3/6
f 344/3/6 345/3/6 347/3/6
f 347/3/6 345/3/6 348/3/6
f 348/3/6 345/3/6 349/3/6
f 349/3/6 345/3/6 350/3/6
f 348/3/6 349/3/6 351/3/6
f 351/3/6 349/3/6 352/3/6
f 353/4/6 354/4/6 355/4/6
f 355/4/6 354/4/6 356/4/6
f 356/4/6 354/4/6 357/4/6
f 357/4/6 354/4/6 358/4/6
f 356/4/6 357/4/6 360/4/6
f 360/4/6 357/4/6 361/4/6
f 360/4/6 361/4/6 363/4/6
f 361/4/6 362/4/6 363/4/6
f 359/4/6 360/4/6 363/4/6
f 363/4/6 362/4/6 364/4/6
f 359/4/6 363/4/6 366/4/6
f 364/4/6 362/4/6 367/4/6
f 365/4/6 366/4/6 369/4/6
f 363/1/6 364/1/6 370/1/6
f 369/4/6 366/4/6 370/4/6
f 366/4/6 363/4/6 370/4/6
f 367/4/6 368/4/6 371/4/6
f 370/1/6 364/1/6 371/1/6
f 364/4/6 367/4/6 371/4/6
f 371/4/6 368/4/6 372/4/6
