# MagicaVoxel @ ephtracy

# material
mtllib main_gal_1.mtl
usemtl palette

# normals
vn -1 0 0
vn 1 0 0
vn 0 0 1
vn 0 0 -1
vn 0 -1 0
vn 0 1 0

# texcoords
vt 0.857422 0.5
vt 0.919922 0.5
vt 0.939453 0.5
vt 0.970703 0.5
vt 0.974609 0.5
vt 0.978516 0.5
vt 0.982422 0.5
vt 0.986328 0.5
vt 0.990234 0.5
vt 0.994141 0.5

# verts
v -5 10 2
v -5 10 -0
v -5 17 3
v -5 17 2
v -5 17 -0
v -5 18 3
v -5 18 -0
v -3 0 4
v -3 0 -0
v -3 2 4
v -3 2 2
v -3 2 -0
v -3 5 3
v -3 5 2
v -3 5 1
v -3 5 -0
v -3 9 1
v -3 9 -0
v -3 10 3
v -3 10 2
v -3 10 1
v -3 10 -0
v -3 11 3
v -3 11 2
v -3 14 4
v -3 14 3
v -3 17 4
v -3 17 3
v -3 17 2
v -3 20 3
v -3 20 1
v -3 20 -1
v -3 21 3
v -3 21 2
v -3 22 2
v -3 22 1
v -3 23 4
v -3 23 3
v -3 23 2
v -3 24 4
v -3 24 -1
v -2 19 3
v -2 19 -1
v -2 20 3
v -2 20 1
v -2 20 -1
v -2 23 -1
v -2 23 -2
v -2 24 4
v -2 24 -1
v -2 25 4
v -2 25 -1
v -2 25 -2
v -1 17 -2
v -1 17 -3
v -1 18 2
v -1 18 -0
v -1 18 -3
v -1 18 -4
v -1 19 2
v -1 19 -0
v -1 22 -1
v -1 22 -2
v -1 23 4
v -1 23 3
v -1 23 -1
v -1 23 -2
v -1 24 4
v -1 24 3
v -1 24 -3
v -1 24 -4
v -1 25 -1
v -1 25 -2
v -1 25 -3
v -1 26 -1
v -1 26 -2
v 1 0 4
v 1 0 -0
v 1 2 4
v 1 2 2
v 1 2 -0
v 1 5 3
v 1 5 2
v 1 5 1
v 1 5 -0
v 1 9 3
v 1 9 2
v 1 9 1
v 2 23 4
v 2 23 3
v 2 24 4
v 2 24 3
v -2 23 4
v -2 23 3
v -2 24 4
v -2 24 3
v -1 0 4
v -1 0 -0
v -1 2 4
v -1 2 2
v -1 2 -0
v -1 5 3
v -1 5 2
v -1 5 1
v -1 5 -0
v -1 9 3
v -1 9 2
v -1 9 1
v 1 17 -2
v 1 17 -3
v 1 18 2
v 1 18 -0
v 1 18 -3
v 1 18 -4
v 1 19 2
v 1 19 -0
v 1 22 -1
v 1 22 -2
v 1 23 4
v 1 23 3
v 1 23 -1
v 1 23 -2
v 1 24 4
v 1 24 3
v 1 24 -3
v 1 24 -4
v 1 25 -1
v 1 25 -2
v 1 25 -3
v 1 26 -1
v 1 26 -2
v 2 19 3
v 2 19 -1
v 2 20 3
v 2 20 1
v 2 20 -1
v 2 23 -1
v 2 23 -2
v 2 24 4
v 2 24 -1
v 2 25 4
v 2 25 -1
v 2 25 -2
v 3 0 4
v 3 0 -0
v 3 2 4
v 3 2 2
v 3 2 -0
v 3 5 3
v 3 5 2
v 3 5 1
v 3 5 -0
v 3 9 1
v 3 9 -0
v 3 10 3
v 3 10 2
v 3 10 1
v 3 10 -0
v 3 11 3
v 3 11 2
v 3 14 4
v 3 14 3
v 3 17 4
v 3 17 3
v 3 17 2
v 3 20 3
v 3 20 1
v 3 20 -1
v 3 21 3
v 3 21 2
v 3 22 2
v 3 22 1
v 3 23 4
v 3 23 3
v 3 23 2
v 3 24 4
v 3 24 -1
v 5 10 2
v 5 10 -0
v 5 17 3
v 5 17 2
v 5 17 -0
v 5 18 3
v 5 18 -0
v -3 0 4
v -3 2 4
v -3 14 4
v -3 17 4
v -3 23 4
v -3 24 4
v -2 16 4
v -2 17 4
v -2 23 4
v -2 24 4
v -2 25 4
v -1 0 4
v -1 2 4
v -1 14 4
v -1 16 4
v -1 23 4
v -1 24 4
v 1 0 4
v 1 2 4
v 1 14 4
v 1 16 4
v 1 23 4
v 1 24 4
v 2 16 4
v 2 17 4
v 2 23 4
v 2 24 4
v 2 25 4
v 3 0 4
v 3 2 4
v 3 14 4
v 3 17 4
v 3 23 4
v 3 24 4
v -5 17 3
v -5 18 3
v -3 5 3
v -3 10 3
v -3 11 3
v -3 14 3
v -3 17 3
v -3 18 3
v -3 20 3
v -3 21 3
v -3 23 3
v -2 17 3
v -2 19 3
v -2 20 3
v -2 21 3
v -2 23 3
v -2 24 3
v -1 5 3
v -1 9 3
v -1 13 3
v -1 14 3
v -1 17 3
v -1 18 3
v -1 21 3
v -1 23 3
v -1 24 3
v 1 5 3
v 1 9 3
v 1 13 3
v 1 14 3
v 1 17 3
v 1 18 3
v 1 21 3
v 1 23 3
v 1 24 3
v 2 17 3
v 2 19 3
v 2 20 3
v 2 21 3
v 2 23 3
v 2 24 3
v 3 5 3
v 3 10 3
v 3 11 3
v 3 14 3
v 3 17 3
v 3 18 3
v 3 20 3
v 3 21 3
v 3 23 3
v 5 17 3
v 5 18 3
v -5 10 2
v -5 17 2
v -3 2 2
v -3 5 2
v -3 10 2
v -3 11 2
v -3 17 2
v -1 2 2
v -1 5 2
v -1 18 2
v -1 19 2
v 1 2 2
v 1 5 2
v 1 18 2
v 1 19 2
v 3 2 2
v 3 5 2
v 3 10 2
v 3 11 2
v 3 17 2
v 5 10 2
v 5 17 2
v -1 25 -1
v -1 26 -1
v 1 25 -1
v 1 26 -1
v -1 17 -2
v -1 22 -2
v 1 17 -2
v 1 22 -2
v -3 5 1
v -3 9 1
v -1 5 1
v -1 9 1
v 1 5 1
v 1 9 1
v 3 5 1
v 3 9 1
v -5 10 -0
v -5 17 -0
v -5 18 -0
v -3 0 -0
v -3 2 -0
v -3 5 -0
v -3 9 -0
v -3 10 -0
v -3 17 -0
v -3 18 -0
v -2 16 -0
v -2 17 -0
v -1 0 -0
v -1 2 -0
v -1 5 -0
v -1 15 -0
v -1 16 -0
v -1 18 -0
v -1 19 -0
v 1 0 -0
v 1 2 -0
v 1 5 -0
v 1 15 -0
v 1 16 -0
v 1 18 -0
v 1 19 -0
v 2 16 -0
v 2 17 -0
v 3 0 -0
v 3 2 -0
v 3 5 -0
v 3 9 -0
v 3 10 -0
v 3 17 -0
v 3 18 -0
v 5 10 -0
v 5 17 -0
v 5 18 -0
v -3 20 -1
v -3 24 -1
v -2 19 -1
v -2 20 -1
v -2 23 -1
v -2 24 -1
v -1 22 -1
v -1 23 -1
v 1 22 -1
v 1 23 -1
v 2 19 -1
v 2 20 -1
v 2 23 -1
v 2 24 -1
v 3 20 -1
v 3 24 -1
v -2 23 -2
v -2 25 -2
v -1 23 -2
v -1 25 -2
v -1 26 -2
v 1 23 -2
v 1 25 -2
v 1 26 -2
v 2 23 -2
v 2 25 -2
v -1 17 -3
v -1 18 -3
v -1 24 -3
v -1 25 -3
v 1 17 -3
v 1 18 -3
v 1 24 -3
v 1 25 -3
v -1 18 -4
v -1 24 -4
v 1 18 -4
v 1 24 -4
v -3 0 4
v -1 0 4
v 1 0 4
v 3 0 4
v -3 0 -0
v -1 0 -0
v 1 0 -0
v 3 0 -0
v -3 5 3
v -1 5 3
v 1 5 3
v 3 5 3
v -3 5 2
v -1 5 2
v 1 5 2
v 3 5 2
v -1 9 3
v 1 9 3
v -1 9 2
v 1 9 2
v -3 9 1
v -1 9 1
v 1 9 1
v 3 9 1
v -3 9 -0
v 3 9 -0
v -5 10 2
v -3 10 2
v 3 10 2
v 5 10 2
v -3 10 1
v 3 10 1
v -5 10 -0
v -3 10 -0
v 3 10 -0
v 5 10 -0
v -3 14 4
v -1 14 4
v 1 14 4
v 3 14 4
v -3 14 3
v -1 14 3
v 1 14 3
v 3 14 3
v -5 17 3
v -3 17 3
v 3 17 3
v 5 17 3
v -5 17 2
v -3 17 2
v 3 17 2
v 5 17 2
v -1 17 -2
v 1 17 -2
v -1 17 -3
v 1 17 -3
v -1 18 -3
v 1 18 -3
v -1 18 -4
v 1 18 -4
v -2 19 3
v 2 19 3
v -1 19 2
v 1 19 2
v -1 19 -0
v 1 19 -0
v -2 19 -1
v 2 19 -1
v -3 20 3
v -2 20 3
v 2 20 3
v 3 20 3
v -3 20 1
v -2 20 1
v 2 20 1
v 3 20 1
v -3 20 -1
v -2 20 -1
v 2 20 -1
v 3 20 -1
v -1 22 -1
v 1 22 -1
v -1 22 -2
v 1 22 -2
v -3 23 4
v -2 23 4
v -1 23 4
v 1 23 4
v 2 23 4
v 3 23 4
v -3 23 3
v -2 23 3
v -1 23 3
v 1 23 3
v 2 23 3
v 3 23 3
v -2 23 -1
v -1 23 -1
v 1 23 -1
v 2 23 -1
v -2 23 -2
v -1 23 -2
v 1 23 -2
v 2 23 -2
v -2 24 4
v -1 24 4
v 1 24 4
v 2 24 4
v -2 24 3
v -1 24 3
v 1 24 3
v 2 24 3
v -3 2 4
v -1 2 4
v 1 2 4
v 3 2 4
v -3 2 2
v -1 2 2
v 1 2 2
v 3 2 2
v -3 5 1
v -1 5 1
v 1 5 1
v 3 5 1
v -3 5 -0
v -1 5 -0
v 1 5 -0
v 3 5 -0
v -3 17 4
v -2 17 4
v 2 17 4
v 3 17 4
v -3 17 3
v -2 17 3
v -1 17 3
v 1 17 3
v 2 17 3
v 3 17 3
v -5 18 3
v -3 18 3
v -1 18 3
v 1 18 3
v 3 18 3
v 5 18 3
v -1 18 2
v 1 18 2
v -5 18 -0
v -3 18 -0
v -1 18 -0
v 1 18 -0
v 3 18 -0
v 5 18 -0
v -3 24 4
v -2 24 4
v 2 24 4
v 3 24 4
v -3 24 -1
v -2 24 -1
v 2 24 -1
v 3 24 -1
v -1 24 -3
v 1 24 -3
v -1 24 -4
v 1 24 -4
v -2 25 4
v 2 25 4
v -2 25 -1
v -1 25 -1
v 1 25 -1
v 2 25 -1
v -2 25 -2
v -1 25 -2
v 1 25 -2
v 2 25 -2
v -1 25 -3
v 1 25 -3
v -1 26 -1
v 1 26 -1
v -1 26 -2
v 1 26 -2

# faces
f 4/8/1 2/8/1 1/8/1
f 5/8/1 2/8/1 4/8/1
f 6/10/1 4/10/1 3/10/1
f 6/10/1 5/10/1 4/10/1
f 7/10/1 5/10/1 6/10/1
f 10/1/1 9/1/1 8/1/1
f 11/1/1 9/1/1 10/1/1
f 12/1/1 9/1/1 11/1/1
f 14/8/1 12/8/1 11/8/1
f 15/8/1 12/8/1 14/8/1
f 16/8/1 12/8/1 15/8/1
f 17/2/1 14/2/1 13/2/1
f 17/2/1 15/2/1 14/2/1
f 19/2/1 17/2/1 13/2/1
f 20/2/1 17/2/1 19/2/1
f 21/10/1 18/10/1 17/10/1
f 21/2/1 17/2/1 20/2/1
f 22/10/1 18/10/1 21/10/1
f 23/6/1 20/6/1 19/6/1
f 24/6/1 20/6/1 23/6/1
f 26/10/1 24/10/1 23/10/1
f 27/10/1 26/10/1 25/10/1
f 28/10/1 24/10/1 26/10/1
f 28/10/1 26/10/1 27/10/1
f 29/10/1 24/10/1 28/10/1
f 33/8/1 31/8/1 30/8/1
f 34/8/1 31/8/1 33/8/1
f 35/5/1 34/5/1 33/5/1
f 35/8/1 31/8/1 34/8/1
f 36/7/1 32/7/1 31/7/1
f 36/8/1 31/8/1 35/8/1
f 38/5/1 35/5/1 33/5/1
f 39/7/1 36/7/1 35/7/1
f 39/5/1 35/5/1 38/5/1
f 40/7/1 38/7/1 37/7/1
f 40/7/1 39/7/1 38/7/1
f 41/7/1 32/7/1 36/7/1
f 41/7/1 39/7/1 40/7/1
f 41/7/1 36/7/1 39/7/1
f 44/8/1 43/8/1 42/8/1
f 45/8/1 43/8/1 44/8/1
f 46/8/1 43/8/1 45/8/1
f 50/6/1 48/6/1 47/6/1
f 51/7/1 50/7/1 49/7/1
f 52/6/1 48/6/1 50/6/1
f 52/7/1 50/7/1 51/7/1
f 53/6/1 48/6/1 52/6/1
f 58/7/1 55/7/1 54/7/1
f 60/8/1 57/8/1 56/8/1
f 61/8/1 57/8/1 60/8/1
f 63/7/1 59/7/1 58/7/1
f 63/7/1 58/7/1 54/7/1
f 66/6/1 63/6/1 62/6/1
f 67/7/1 59/7/1 63/7/1
f 67/6/1 63/6/1 66/6/1
f 68/7/1 65/7/1 64/7/1
f 69/7/1 65/7/1 68/7/1
f 70/7/1 59/7/1 67/7/1
f 71/7/1 59/7/1 70/7/1
f 73/7/1 70/7/1 67/7/1
f 74/7/1 70/7/1 73/7/1
f 75/6/1 73/6/1 72/6/1
f 76/6/1 73/6/1 75/6/1
f 79/1/1 78/1/1 77/1/1
f 80/1/1 78/1/1 79/1/1
f 81/1/1 78/1/1 80/1/1
f 83/8/1 81/8/1 80/8/1
f 84/8/1 81/8/1 83/8/1
f 85/8/1 81/8/1 84/8/1
f 86/2/1 83/2/1 82/2/1
f 86/2/1 84/2/1 83/2/1
f 87/2/1 84/2/1 86/2/1
f 88/2/1 84/2/1 87/2/1
f 91/7/1 90/7/1 89/7/1
f 92/7/1 90/7/1 91/7/1
f 93/7/2 94/7/2 95/7/2
f 95/7/2 94/7/2 96/7/2
f 97/1/2 98/1/2 99/1/2
f 99/1/2 98/1/2 100/1/2
f 100/1/2 98/1/2 101/1/2
f 100/8/2 101/8/2 103/8/2
f 103/8/2 101/8/2 104/8/2
f 104/8/2 101/8/2 105/8/2
f 102/2/2 103/2/2 106/2/2
f 103/2/2 104/2/2 106/2/2
f 106/2/2 104/2/2 107/2/2
f 107/2/2 104/2/2 108/2/2
f 109/7/2 110/7/2 113/7/2
f 111/8/2 112/8/2 115/8/2
f 115/8/2 112/8/2 116/8/2
f 113/7/2 114/7/2 118/7/2
f 109/7/2 113/7/2 118/7/2
f 117/6/2 118/6/2 121/6/2
f 118/7/2 114/7/2 122/7/2
f 121/6/2 118/6/2 122/6/2
f 119/7/2 120/7/2 123/7/2
f 123/7/2 120/7/2 124/7/2
f 122/7/2 114/7/2 125/7/2
f 125/7/2 114/7/2 126/7/2
f 122/7/2 125/7/2 128/7/2
f 128/7/2 125/7/2 129/7/2
f 127/6/2 128/6/2 130/6/2
f 130/6/2 128/6/2 131/6/2
f 132/8/2 133/8/2 134/8/2
f 134/8/2 133/8/2 135/8/2
f 135/8/2 133/8/2 136/8/2
f 137/6/2 138/6/2 140/6/2
f 139/7/2 140/7/2 141/7/2
f 140/6/2 138/6/2 142/6/2
f 141/7/2 140/7/2 142/7/2
f 142/6/2 138/6/2 143/6/2
f 144/1/2 145/1/2 146/1/2
f 146/1/2 145/1/2 147/1/2
f 147/1/2 145/1/2 148/1/2
f 147/8/2 148/8/2 150/8/2
f 150/8/2 148/8/2 151/8/2
f 151/8/2 148/8/2 152/8/2
f 149/2/2 150/2/2 153/2/2
f 150/2/2 151/2/2 153/2/2
f 149/2/2 153/2/2 155/2/2
f 155/2/2 153/2/2 156/2/2
f 153/10/2 154/10/2 157/10/2
f 156/2/2 153/2/2 157/2/2
f 157/10/2 154/10/2 158/10/2
f 155/6/2 156/6/2 159/6/2
f 159/6/2 156/6/2 160/6/2
f 159/10/2 160/10/2 162/10/2
f 161/10/2 162/10/2 163/10/2
f 162/10/2 160/10/2 164/10/2
f 163/10/2 162/10/2 164/10/2
f 164/10/2 160/10/2 165/10/2
f 166/8/2 167/8/2 169/8/2
f 169/8/2 167/8/2 170/8/2
f 169/5/2 170/5/2 171/5/2
f 170/8/2 167/8/2 171/8/2
f 167/7/2 168/7/2 172/7/2
f 171/8/2 167/8/2 172/8/2
f 169/5/2 171/5/2 174/5/2
f 171/7/2 172/7/2 175/7/2
f 174/5/2 171/5/2 175/5/2
f 173/7/2 174/7/2 176/7/2
f 174/7/2 175/7/2 176/7/2
f 172/7/2 168/7/2 177/7/2
f 176/7/2 175/7/2 177/7/2
f 175/7/2 172/7/2 177/7/2
f 178/8/2 179/8/2 181/8/2
f 181/8/2 179/8/2 182/8/2
f 180/10/2 181/10/2 183/10/2
f 181/10/2 182/10/2 183/10/2
f 183/10/2 182/10/2 184/10/2
f 191/10/3 188/10/3 187/10/3
f 192/10/3 188/10/3 191/10/3
f 193/7/3 190/7/3 189/7/3
f 194/7/3 190/7/3 193/7/3
f 196/1/3 186/1/3 185/1/3
f 197/1/3 186/1/3 196/1/3
f 198/10/3 191/10/3 187/10/3
f 199/9/3 192/9/3 191/9/3
f 199/10/3 191/10/3 198/10/3
f 201/7/3 195/7/3 194/7/3
f 204/9/3 199/9/3 198/9/3
f 205/9/3 192/9/3 199/9/3
f 205/9/3 199/9/3 204/9/3
f 206/7/3 201/7/3 200/7/3
f 207/7/3 195/7/3 201/7/3
f 207/7/3 201/7/3 206/7/3
f 208/9/3 192/9/3 205/9/3
f 208/10/3 205/10/3 204/10/3
f 209/9/3 192/9/3 208/9/3
f 211/7/3 195/7/3 207/7/3
f 212/7/3 195/7/3 211/7/3
f 213/1/3 203/1/3 202/1/3
f 214/1/3 203/1/3 213/1/3
f 215/10/3 209/10/3 208/10/3
f 215/10/3 208/10/3 204/10/3
f 216/10/3 209/10/3 215/10/3
f 217/7/3 211/7/3 210/7/3
f 218/7/3 211/7/3 217/7/3
f 225/10/3 220/10/3 219/10/3
f 226/10/3 220/10/3 225/10/3
f 230/9/3 226/9/3 225/9/3
f 232/8/3 228/8/3 227/8/3
f 233/5/3 229/5/3 228/5/3
f 233/8/3 228/8/3 232/8/3
f 234/5/3 229/5/3 233/5/3
f 236/2/3 222/2/3 221/2/3
f 237/2/3 222/2/3 236/2/3
f 238/10/3 224/10/3 223/10/3
f 239/10/3 224/10/3 238/10/3
f 240/9/3 226/9/3 230/9/3
f 241/9/3 226/9/3 240/9/3
f 242/8/3 232/8/3 231/8/3
f 242/8/3 233/8/3 232/8/3
f 242/4/3 234/4/3 233/4/3
f 243/8/3 235/8/3 234/8/3
f 243/4/3 234/4/3 242/4/3
f 244/8/3 235/8/3 243/8/3
f 246/2/3 222/2/3 237/2/3
f 247/9/3 239/9/3 238/9/3
f 247/10/3 238/10/3 223/10/3
f 248/9/3 239/9/3 247/9/3
f 249/8/3 241/8/3 240/8/3
f 250/8/3 241/8/3 249/8/3
f 251/8/3 243/8/3 242/8/3
f 251/8/3 242/8/3 231/8/3
f 252/8/3 243/8/3 251/8/3
f 254/9/3 250/9/3 249/9/3
f 255/8/3 251/8/3 231/8/3
f 256/8/3 251/8/3 255/8/3
f 257/4/3 252/4/3 251/4/3
f 257/8/3 251/8/3 256/8/3
f 258/8/3 253/8/3 252/8/3
f 258/4/3 252/4/3 257/4/3
f 259/8/3 253/8/3 258/8/3
f 260/2/3 246/2/3 245/2/3
f 261/6/3 223/6/3 222/6/3
f 261/2/3 246/2/3 260/2/3
f 261/2/3 222/2/3 246/2/3
f 262/10/3 248/10/3 247/10/3
f 262/6/3 223/6/3 261/6/3
f 262/10/3 247/10/3 223/10/3
f 263/10/3 248/10/3 262/10/3
f 264/9/3 250/9/3 254/9/3
f 265/9/3 250/9/3 264/9/3
f 266/8/3 257/8/3 256/8/3
f 267/5/3 258/5/3 257/5/3
f 267/8/3 257/8/3 266/8/3
f 268/5/3 258/5/3 267/5/3
f 269/10/3 265/10/3 264/10/3
f 270/10/3 265/10/3 269/10/3
f 275/8/3 272/8/3 271/8/3
f 276/8/3 272/8/3 275/8/3
f 277/8/3 272/8/3 276/8/3
f 278/8/3 274/8/3 273/8/3
f 279/8/3 274/8/3 278/8/3
f 284/8/3 281/8/3 280/8/3
f 285/8/3 281/8/3 284/8/3
f 286/8/3 283/8/3 282/8/3
f 287/8/3 283/8/3 286/8/3
f 291/8/3 290/8/3 289/8/3
f 291/8/3 289/8/3 288/8/3
f 292/8/3 290/8/3 291/8/3
f 295/6/3 294/6/3 293/6/3
f 296/6/3 294/6/3 295/6/3
f 299/7/3 298/7/3 297/7/3
f 300/7/3 298/7/3 299/7/3
f 301/2/4 302/2/4 303/2/4
f 303/2/4 302/2/4 304/2/4
f 305/2/4 306/2/4 307/2/4
f 307/2/4 306/2/4 308/2/4
f 309/8/4 310/8/4 316/8/4
f 310/10/4 311/10/4 317/10/4
f 316/8/4 310/8/4 317/8/4
f 317/10/4 311/10/4 318/10/4
f 315/10/4 316/10/4 319/10/4
f 316/10/4 317/10/4 319/10/4
f 317/9/4 318/9/4 320/9/4
f 319/10/4 317/10/4 320/10/4
f 312/1/4 313/1/4 321/1/4
f 313/8/4 314/8/4 322/8/4
f 321/1/4 313/1/4 322/1/4
f 322/8/4 314/8/4 323/8/4
f 315/10/4 319/10/4 324/10/4
f 319/9/4 320/9/4 325/9/4
f 324/10/4 319/10/4 325/10/4
f 320/9/4 318/9/4 326/9/4
f 325/9/4 320/9/4 326/9/4
f 325/9/4 326/9/4 331/9/4
f 324/9/4 325/9/4 331/9/4
f 315/10/4 324/10/4 331/10/4
f 331/9/4 326/9/4 332/9/4
f 326/8/4 327/8/4 333/8/4
f 332/9/4 326/9/4 333/9/4
f 333/8/4 327/8/4 334/8/4
f 331/10/4 332/10/4 335/10/4
f 332/9/4 333/9/4 335/9/4
f 335/9/4 333/9/4 336/9/4
f 328/1/4 329/1/4 337/1/4
f 329/8/4 330/8/4 338/8/4
f 337/1/4 329/1/4 338/1/4
f 338/8/4 330/8/4 339/8/4
f 315/10/4 331/10/4 340/10/4
f 331/10/4 335/10/4 340/10/4
f 335/10/4 336/10/4 340/10/4
f 340/10/4 336/10/4 341/10/4
f 336/9/4 333/9/4 342/9/4
f 341/10/4 336/10/4 342/10/4
f 342/9/4 333/9/4 343/9/4
f 341/8/4 342/8/4 344/8/4
f 342/10/4 343/10/4 345/10/4
f 344/8/4 342/8/4 345/8/4
f 345/10/4 343/10/4 346/10/4
f 347/7/4 348/7/4 350/7/4
f 350/7/4 348/7/4 351/7/4
f 351/7/4 348/7/4 352/7/4
f 350/7/4 351/7/4 353/7/4
f 353/7/4 351/7/4 354/7/4
f 350/7/4 353/7/4 355/7/4
f 349/8/4 350/8/4 357/8/4
f 355/7/4 356/7/4 358/7/4
f 357/8/4 350/8/4 358/8/4
f 350/7/4 355/7/4 358/7/4
f 358/7/4 356/7/4 359/7/4
f 358/7/4 359/7/4 361/7/4
f 359/7/4 360/7/4 361/7/4
f 361/7/4 360/7/4 362/7/4
f 363/6/4 364/6/4 365/6/4
f 365/6/4 364/6/4 366/6/4
f 366/6/4 367/6/4 369/6/4
f 369/6/4 367/6/4 370/6/4
f 368/6/4 369/6/4 371/6/4
f 371/6/4 369/6/4 372/6/4
f 373/7/4 374/7/4 377/7/4
f 377/7/4 374/7/4 378/7/4
f 375/7/4 376/7/4 379/7/4
f 379/7/4 376/7/4 380/7/4
f 381/7/4 382/7/4 383/7/4
f 383/7/4 382/7/4 384/7/4
f 389/1/5 386/1/5 385/1/5
f 390/1/5 386/1/5 389/1/5
f 391/1/5 388/1/5 387/1/5
f 392/1/5 388/1/5 391/1/5
f 397/2/5 394/2/5 393/2/5
f 398/2/5 394/2/5 397/2/5
f 399/2/5 396/2/5 395/2/5
f 400/2/5 396/2/5 399/2/5
f 403/2/5 402/2/5 401/2/5
f 404/2/5 402/2/5 403/2/5
f 406/3/5 404/3/5 403/3/5
f 407/3/5 404/3/5 406/3/5
f 409/10/5 407/10/5 406/10/5
f 409/10/5 408/10/5 407/10/5
f 409/10/5 406/10/5 405/10/5
f 410/10/5 408/10/5 409/10/5
f 415/8/5 412/8/5 411/8/5
f 416/8/5 414/8/5 413/8/5
f 417/8/5 415/8/5 411/8/5
f 418/8/5 415/8/5 417/8/5
f 419/8/5 414/8/5 416/8/5
f 420/8/5 414/8/5 419/8/5
f 425/10/5 422/10/5 421/10/5
f 426/9/5 423/9/5 422/9/5
f 426/10/5 422/10/5 425/10/5
f 427/10/5 424/10/5 423/10/5
f 427/9/5 423/9/5 426/9/5
f 428/10/5 424/10/5 427/10/5
f 433/10/5 430/10/5 429/10/5
f 434/10/5 430/10/5 433/10/5
f 435/10/5 432/10/5 431/10/5
f 436/10/5 432/10/5 435/10/5
f 439/7/5 438/7/5 437/7/5
f 440/7/5 438/7/5 439/7/5
f 443/7/5 442/7/5 441/7/5
f 444/7/5 442/7/5 443/7/5
f 447/8/5 446/8/5 445/8/5
f 448/8/5 446/8/5 447/8/5
f 449/8/5 447/8/5 445/8/5
f 450/8/5 446/8/5 448/8/5
f 451/8/5 449/8/5 445/8/5
f 451/8/5 450/8/5 449/8/5
f 452/8/5 446/8/5 450/8/5
f 452/8/5 450/8/5 451/8/5
f 457/8/5 454/8/5 453/8/5
f 458/8/5 454/8/5 457/8/5
f 459/8/5 456/8/5 455/8/5
f 460/8/5 456/8/5 459/8/5
f 461/7/5 458/7/5 457/7/5
f 462/7/5 458/7/5 461/7/5
f 463/7/5 460/7/5 459/7/5
f 464/7/5 460/7/5 463/7/5
f 467/6/5 466/6/5 465/6/5
f 468/6/5 466/6/5 467/6/5
f 475/7/5 470/7/5 469/7/5
f 476/7/5 470/7/5 475/7/5
f 477/7/5 472/7/5 471/7/5
f 478/7/5 472/7/5 477/7/5
f 479/7/5 474/7/5 473/7/5
f 480/7/5 474/7/5 479/7/5
f 485/6/5 482/6/5 481/6/5
f 486/6/5 482/6/5 485/6/5
f 487/6/5 484/6/5 483/6/5
f 488/6/5 484/6/5 487/6/5
f 493/7/5 490/7/5 489/7/5
f 494/7/5 490/7/5 493/7/5
f 495/7/5 492/7/5 491/7/5
f 496/7/5 492/7/5 495/7/5
f 497/1/6 498/1/6 501/1/6
f 501/1/6 498/1/6 502/1/6
f 499/1/6 500/1/6 503/1/6
f 503/1/6 500/1/6 504/1/6
f 505/8/6 506/8/6 509/8/6
f 509/8/6 506/8/6 510/8/6
f 507/8/6 508/8/6 511/8/6
f 511/8/6 508/8/6 512/8/6
f 513/10/6 514/10/6 517/10/6
f 514/9/6 515/9/6 518/9/6
f 517/10/6 514/10/6 518/10/6
f 518/9/6 515/9/6 519/9/6
f 519/9/6 515/9/6 520/9/6
f 515/10/6 516/10/6 521/10/6
f 520/9/6 515/9/6 521/9/6
f 521/10/6 516/10/6 522/10/6
f 524/9/6 525/9/6 529/9/6
f 525/8/6 526/8/6 529/8/6
f 526/9/6 527/9/6 530/9/6
f 529/8/6 526/8/6 530/8/6
f 523/10/6 524/10/6 531/10/6
f 524/9/6 529/9/6 532/9/6
f 531/10/6 524/10/6 532/10/6
f 532/9/6 529/9/6 533/9/6
f 530/9/6 527/9/6 534/9/6
f 527/10/6 528/10/6 535/10/6
f 534/9/6 527/9/6 535/9/6
f 535/10/6 528/10/6 536/10/6
f 537/7/6 538/7/6 541/7/6
f 541/7/6 538/7/6 542/7/6
f 539/7/6 540/7/6 543/7/6
f 543/7/6 540/7/6 544/7/6
f 545/7/6 546/7/6 547/7/6
f 547/7/6 546/7/6 548/7/6
f 549/7/6 550/7/6 551/7/6
f 551/7/6 550/7/6 552/7/6
f 552/7/6 550/7/6 553/7/6
f 553/7/6 550/7/6 554/7/6
f 551/6/6 552/6/6 555/6/6
f 555/6/6 552/6/6 556/6/6
f 553/6/6 554/6/6 557/6/6
f 557/6/6 554/6/6 558/6/6
f 556/7/6 557/7/6 559/7/6
f 559/7/6 557/7/6 560/7/6
f 561/6/6 562/6/6 563/6/6
f 563/6/6 562/6/6 564/6/6
