# MagicaVoxel @ ephtracy

# material
mtllib spear_1.mtl
usemtl palette

# normals
vn -1 0 0
vn 1 0 0
vn 0 0 1
vn 0 0 -1
vn 0 -1 0
vn 0 1 0

# texcoords
vt 0.974609 0.5
vt 0.978516 0.5
vt 0.986328 0.5
vt 0.990234 0.5
vt 0.994141 0.5

# verts
v -4.5 2 -20
v -4.5 2 -23
v -4.5 3 -20
v -4.5 3 -23
v -3.5 2 -18
v -3.5 2 -19
v -3.5 2 -23
v -3.5 2 -24
v -3.5 3 -18
v -3.5 3 -19
v -3.5 3 -23
v -3.5 3 -24
v -2.5 0 30
v -2.5 0 29
v -2.5 0 -13
v -2.5 0 -14
v -2.5 2 -24
v -2.5 2 -26
v -2.5 3 -24
v -2.5 3 -26
v -2.5 5 30
v -2.5 5 29
v -2.5 5 -13
v -2.5 5 -14
v -1.5 1 -21
v -1.5 1 -22
v -1.5 2 29
v -1.5 2 28
v -1.5 2 27
v -1.5 2 26
v -1.5 2 25
v -1.5 2 24
v -1.5 2 23
v -1.5 2 -13
v -1.5 2 -14
v -1.5 2 -18
v -1.5 2 -19
v -1.5 2 -21
v -1.5 2 -22
v -1.5 2 -26
v -1.5 2 -28
v -1.5 3 29
v -1.5 3 28
v -1.5 3 27
v -1.5 3 26
v -1.5 3 25
v -1.5 3 24
v -1.5 3 23
v -1.5 3 -13
v -1.5 3 -14
v -1.5 3 -18
v -1.5 3 -19
v -1.5 3 -21
v -1.5 3 -22
v -1.5 3 -26
v -1.5 3 -28
v -1.5 4 -21
v -1.5 4 -22
v -0.5 1 29
v -0.5 1 28
v -0.5 1 27
v -0.5 1 26
v -0.5 1 25
v -0.5 1 24
v -0.5 1 23
v -0.5 1 -13
v -0.5 1 -14
v -0.5 1 -21
v -0.5 1 -22
v -0.5 1 -26
v -0.5 2 29
v -0.5 2 28
v -0.5 2 27
v -0.5 2 26
v -0.5 2 25
v -0.5 2 24
v -0.5 2 23
v -0.5 2 -13
v -0.5 2 -14
v -0.5 2 -21
v -0.5 2 -22
v -0.5 2 -26
v -0.5 2 -28
v -0.5 2 -30
v -0.5 3 29
v -0.5 3 28
v -0.5 3 27
v -0.5 3 26
v -0.5 3 25
v -0.5 3 24
v -0.5 3 23
v -0.5 3 -13
v -0.5 3 -14
v -0.5 3 -21
v -0.5 3 -22
v -0.5 3 -26
v -0.5 3 -28
v -0.5 3 -30
v -0.5 4 29
v -0.5 4 28
v -0.5 4 27
v -0.5 4 26
v -0.5 4 25
v -0.5 4 24
v -0.5 4 23
v -0.5 4 -13
v -0.5 4 -14
v -0.5 4 -21
v -0.5 4 -22
v -0.5 4 -26
v 2.5 2 -21
v 2.5 2 -22
v 2.5 3 -21
v 2.5 3 -22
v 3.5 2 -20
v 3.5 2 -21
v 3.5 3 -20
v 3.5 3 -21
v -3.5 2 -20
v -3.5 2 -21
v -3.5 3 -20
v -3.5 3 -21
v -2.5 2 -21
v -2.5 2 -22
v -2.5 3 -21
v -2.5 3 -22
v 0.5 1 29
v 0.5 1 28
v 0.5 1 27
v 0.5 1 26
v 0.5 1 25
v 0.5 1 24
v 0.5 1 23
v 0.5 1 -13
v 0.5 1 -14
v 0.5 1 -21
v 0.5 1 -22
v 0.5 1 -26
v 0.5 2 29
v 0.5 2 28
v 0.5 2 27
v 0.5 2 26
v 0.5 2 25
v 0.5 2 24
v 0.5 2 23
v 0.5 2 -13
v 0.5 2 -14
v 0.5 2 -21
v 0.5 2 -22
v 0.5 2 -26
v 0.5 2 -28
v 0.5 2 -30
v 0.5 3 29
v 0.5 3 28
v 0.5 3 27
v 0.5 3 26
v 0.5 3 25
v 0.5 3 24
v 0.5 3 23
v 0.5 3 -13
v 0.5 3 -14
v 0.5 3 -21
v 0.5 3 -22
v 0.5 3 -26
v 0.5 3 -28
v 0.5 3 -30
v 0.5 4 29
v 0.5 4 28
v 0.5 4 27
v 0.5 4 26
v 0.5 4 25
v 0.5 4 24
v 0.5 4 23
v 0.5 4 -13
v 0.5 4 -14
v 0.5 4 -21
v 0.5 4 -22
v 0.5 4 -26
v 1.5 1 -21
v 1.5 1 -22
v 1.5 2 29
v 1.5 2 28
v 1.5 2 27
v 1.5 2 26
v 1.5 2 25
v 1.5 2 24
v 1.5 2 23
v 1.5 2 -13
v 1.5 2 -14
v 1.5 2 -18
v 1.5 2 -19
v 1.5 2 -21
v 1.5 2 -22
v 1.5 2 -26
v 1.5 2 -28
v 1.5 3 29
v 1.5 3 28
v 1.5 3 27
v 1.5 3 26
v 1.5 3 25
v 1.5 3 24
v 1.5 3 23
v 1.5 3 -13
v 1.5 3 -14
v 1.5 3 -18
v 1.5 3 -19
v 1.5 3 -21
v 1.5 3 -22
v 1.5 3 -26
v 1.5 3 -28
v 1.5 4 -21
v 1.5 4 -22
v 2.5 0 30
v 2.5 0 29
v 2.5 0 -13
v 2.5 0 -14
v 2.5 2 -24
v 2.5 2 -26
v 2.5 3 -24
v 2.5 3 -26
v 2.5 5 30
v 2.5 5 29
v 2.5 5 -13
v 2.5 5 -14
v 3.5 2 -18
v 3.5 2 -19
v 3.5 2 -23
v 3.5 2 -24
v 3.5 3 -18
v 3.5 3 -19
v 3.5 3 -23
v 3.5 3 -24
v 4.5 2 -20
v 4.5 2 -23
v 4.5 3 -20
v 4.5 3 -23
v -2.5 0 30
v -2.5 5 30
v 2.5 0 30
v 2.5 5 30
v -2.5 0 -13
v -2.5 5 -13
v -1.5 2 -13
v -1.5 3 -13
v -0.5 1 -13
v -0.5 2 -13
v -0.5 3 -13
v -0.5 4 -13
v 0.5 1 -13
v 0.5 2 -13
v 0.5 3 -13
v 0.5 4 -13
v 1.5 2 -13
v 1.5 3 -13
v 2.5 0 -13
v 2.5 5 -13
v -3.5 2 -18
v -3.5 3 -18
v -1.5 2 -18
v -1.5 3 -18
v 1.5 2 -18
v 1.5 3 -18
v 3.5 2 -18
v 3.5 3 -18
v -4.5 2 -20
v -4.5 3 -20
v -3.5 2 -20
v -3.5 3 -20
v 3.5 2 -20
v 3.5 3 -20
v 4.5 2 -20
v 4.5 3 -20
v -3.5 2 -21
v -3.5 3 -21
v -2.5 2 -21
v -2.5 3 -21
v -1.5 1 -21
v -1.5 2 -21
v -1.5 3 -21
v -1.5 4 -21
v -0.5 1 -21
v -0.5 2 -21
v -0.5 3 -21
v -0.5 4 -21
v 0.5 1 -21
v 0.5 2 -21
v 0.5 3 -21
v 0.5 4 -21
v 1.5 1 -21
v 1.5 2 -21
v 1.5 3 -21
v 1.5 4 -21
v 2.5 2 -21
v 2.5 3 -21
v 3.5 2 -21
v 3.5 3 -21
v -2.5 2 -22
v -2.5 3 -22
v -1.5 2 -22
v -1.5 3 -22
v 1.5 2 -22
v 1.5 3 -22
v 2.5 2 -22
v 2.5 3 -22
v -2.5 0 29
v -2.5 5 29
v -1.5 2 29
v -1.5 3 29
v -0.5 1 29
v -0.5 2 29
v -0.5 3 29
v -0.5 4 29
v 0.5 1 29
v 0.5 2 29
v 0.5 3 29
v 0.5 4 29
v 1.5 2 29
v 1.5 3 29
v 2.5 0 29
v 2.5 5 29
v -2.5 0 -14
v -2.5 5 -14
v -1.5 2 -14
v -1.5 3 -14
v -0.5 1 -14
v -0.5 2 -14
v -0.5 3 -14
v -0.5 4 -14
v 0.5 1 -14
v 0.5 2 -14
v 0.5 3 -14
v 0.5 4 -14
v 1.5 2 -14
v 1.5 3 -14
v 2.5 0 -14
v 2.5 5 -14
v -3.5 2 -19
v -3.5 3 -19
v -1.5 2 -19
v -1.5 3 -19
v 1.5 2 -19
v 1.5 3 -19
v 3.5 2 -19
v 3.5 3 -19
v -1.5 1 -22
v -1.5 2 -22
v -1.5 3 -22
v -1.5 4 -22
v -0.5 1 -22
v -0.5 2 -22
v -0.5 3 -22
v -0.5 4 -22
v 0.5 1 -22
v 0.5 2 -22
v 0.5 3 -22
v 0.5 4 -22
v 1.5 1 -22
v 1.5 2 -22
v 1.5 3 -22
v 1.5 4 -22
v -4.5 2 -23
v -4.5 3 -23
v -3.5 2 -23
v -3.5 3 -23
v 3.5 2 -23
v 3.5 3 -23
v 4.5 2 -23
v 4.5 3 -23
v -3.5 2 -24
v -3.5 3 -24
v -2.5 2 -24
v -2.5 3 -24
v 2.5 2 -24
v 2.5 3 -24
v 3.5 2 -24
v 3.5 3 -24
v -2.5 2 -26
v -2.5 3 -26
v -1.5 2 -26
v -1.5 3 -26
v -0.5 1 -26
v -0.5 2 -26
v -0.5 3 -26
v -0.5 4 -26
v 0.5 1 -26
v 0.5 2 -26
v 0.5 3 -26
v 0.5 4 -26
v 1.5 2 -26
v 1.5 3 -26
v 2.5 2 -26
v 2.5 3 -26
v -1.5 2 -28
v -1.5 3 -28
v -0.5 2 -28
v -0.5 3 -28
v 0.5 2 -28
v 0.5 3 -28
v 1.5 2 -28
v 1.5 3 -28
v -0.5 2 -30
v -0.5 3 -30
v 0.5 2 -30
v 0.5 3 -30
v -2.5 0 30
v 2.5 0 30
v -2.5 0 29
v 2.5 0 29
v -2.5 0 -13
v 2.5 0 -13
v -2.5 0 -14
v 2.5 0 -14
v -0.5 1 29
v 0.5 1 29
v -0.5 1 28
v 0.5 1 28
v -0.5 1 27
v 0.5 1 27
v -0.5 1 26
v 0.5 1 26
v -0.5 1 25
v 0.5 1 25
v -0.5 1 24
v 0.5 1 24
v -0.5 1 23
v 0.5 1 23
v -0.5 1 -13
v 0.5 1 -13
v -0.5 1 -14
v 0.5 1 -14
v -1.5 1 -21
v -0.5 1 -21
v 0.5 1 -21
v 1.5 1 -21
v -1.5 1 -22
v -0.5 1 -22
v 0.5 1 -22
v 1.5 1 -22
v -0.5 1 -26
v 0.5 1 -26
v -1.5 2 29
v -0.5 2 29
v 0.5 2 29
v 1.5 2 29
v -1.5 2 28
v -0.5 2 28
v 0.5 2 28
v 1.5 2 28
v -1.5 2 27
v -0.5 2 27
v 0.5 2 27
v 1.5 2 27
v -1.5 2 26
v -0.5 2 26
v 0.5 2 26
v 1.5 2 26
v -1.5 2 25
v -0.5 2 25
v 0.5 2 25
v 1.5 2 25
v -1.5 2 24
v -0.5 2 24
v 0.5 2 24
v 1.5 2 24
v -1.5 2 23
v -0.5 2 23
v 0.5 2 23
v 1.5 2 23
v -1.5 2 -13
v -0.5 2 -13
v 0.5 2 -13
v 1.5 2 -13
v -1.5 2 -14
v -0.5 2 -14
v 0.5 2 -14
v 1.5 2 -14
v -3.5 2 -18
v -1.5 2 -18
v 1.5 2 -18
v 3.5 2 -18
v -3.5 2 -19
v -1.5 2 -19
v 1.5 2 -19
v 3.5 2 -19
v -4.5 2 -20
v -3.5 2 -20
v 3.5 2 -20
v 4.5 2 -20
v -3.5 2 -21
v -2.5 2 -21
v -1.5 2 -21
v -0.5 2 -21
v 0.5 2 -21
v 1.5 2 -21
v 2.5 2 -21
v 3.5 2 -21
v -2.5 2 -22
v -1.5 2 -22
v -0.5 2 -22
v 0.5 2 -22
v 1.5 2 -22
v 2.5 2 -22
v -4.5 2 -23
v -3.5 2 -23
v 3.5 2 -23
v 4.5 2 -23
v -3.5 2 -24
v -2.5 2 -24
v -1.5 2 -24
v 1.5 2 -24
v 2.5 2 -24
v 3.5 2 -24
v -2.5 2 -26
v -1.5 2 -26
v -0.5 2 -26
v 0.5 2 -26
v 1.5 2 -26
v 2.5 2 -26
v -1.5 2 -28
v -0.5 2 -28
v 0.5 2 -28
v 1.5 2 -28
v -0.5 2 -30
v 0.5 2 -30
v -1.5 3 29
v -0.5 3 29
v 0.5 3 29
v 1.5 3 29
v -1.5 3 28
v -0.5 3 28
v 0.5 3 28
v 1.5 3 28
v -1.5 3 27
v -0.5 3 27
v 0.5 3 27
v 1.5 3 27
v -1.5 3 26
v -0.5 3 26
v 0.5 3 26
v 1.5 3 26
v -1.5 3 25
v -0.5 3 25
v 0.5 3 25
v 1.5 3 25
v -1.5 3 24
v -0.5 3 24
v 0.5 3 24
v 1.5 3 24
v -1.5 3 23
v -0.5 3 23
v 0.5 3 23
v 1.5 3 23
v -1.5 3 -13
v -0.5 3 -13
v 0.5 3 -13
v 1.5 3 -13
v -1.5 3 -14
v -0.5 3 -14
v 0.5 3 -14
v 1.5 3 -14
v -3.5 3 -18
v -1.5 3 -18
v 1.5 3 -18
v 3.5 3 -18
v -3.5 3 -19
v -1.5 3 -19
v 1.5 3 -19
v 3.5 3 -19
v -4.5 3 -20
v -3.5 3 -20
v 3.5 3 -20
v 4.5 3 -20
v -3.5 3 -21
v -2.5 3 -21
v -1.5 3 -21
v -0.5 3 -21
v 0.5 3 -21
v 1.5 3 -21
v 2.5 3 -21
v 3.5 3 -21
v -2.5 3 -22
v -1.5 3 -22
v -0.5 3 -22
v 0.5 3 -22
v 1.5 3 -22
v 2.5 3 -22
v -4.5 3 -23
v -3.5 3 -23
v 3.5 3 -23
v 4.5 3 -23
v -3.5 3 -24
v -2.5 3 -24
v -1.5 3 -24
v 1.5 3 -24
v 2.5 3 -24
v 3.5 3 -24
v -2.5 3 -26
v -1.5 3 -26
v -0.5 3 -26
v 0.5 3 -26
v 1.5 3 -26
v 2.5 3 -26
v -1.5 3 -28
v -0.5 3 -28
v 0.5 3 -28
v 1.5 3 -28
v -0.5 3 -30
v 0.5 3 -30
v -0.5 4 29
v 0.5 4 29
v -0.5 4 28
v 0.5 4 28
v -0.5 4 27
v 0.5 4 27
v -0.5 4 26
v 0.5 4 26
v -0.5 4 25
v 0.5 4 25
v -0.5 4 24
v 0.5 4 24
v -0.5 4 23
v 0.5 4 23
v -0.5 4 -13
v 0.5 4 -13
v -0.5 4 -14
v 0.5 4 -14
v -1.5 4 -21
v -0.5 4 -21
v 0.5 4 -21
v 1.5 4 -21
v -1.5 4 -22
v -0.5 4 -22
v 0.5 4 -22
v 1.5 4 -22
v -0.5 4 -26
v 0.5 4 -26
v -2.5 5 30
v 2.5 5 30
v -2.5 5 29
v 2.5 5 29
v -2.5 5 -13
v 2.5 5 -13
v -2.5 5 -14
v 2.5 5 -14

# faces
f 3/5/1 2/5/1 1/5/1
f 4/5/1 2/5/1 3/5/1
f 9/5/1 6/5/1 5/5/1
f 10/5/1 6/5/1 9/5/1
f 11/5/1 8/5/1 7/5/1
f 12/5/1 8/5/1 11/5/1
f 19/5/1 18/5/1 17/5/1
f 20/5/1 18/5/1 19/5/1
f 21/3/1 14/3/1 13/3/1
f 22/3/1 14/3/1 21/3/1
f 23/3/1 16/3/1 15/3/1
f 24/3/1 16/3/1 23/3/1
f 38/3/1 26/3/1 25/3/1
f 39/3/1 26/3/1 38/3/1
f 42/1/1 28/1/1 27/1/1
f 43/2/1 29/2/1 28/2/1
f 43/1/1 28/1/1 42/1/1
f 44/1/1 30/1/1 29/1/1
f 44/2/1 29/2/1 43/2/1
f 45/2/1 31/2/1 30/2/1
f 45/1/1 30/1/1 44/1/1
f 46/1/1 32/1/1 31/1/1
f 46/2/1 31/2/1 45/2/1
f 47/2/1 33/2/1 32/2/1
f 47/1/1 32/1/1 46/1/1
f 48/1/1 34/1/1 33/1/1
f 48/2/1 33/2/1 47/2/1
f 49/1/1 34/1/1 48/1/1
f 50/3/1 36/3/1 35/3/1
f 51/3/1 36/3/1 50/3/1
f 52/3/1 38/3/1 37/3/1
f 52/3/1 39/3/1 38/3/1
f 53/3/1 39/3/1 52/3/1
f 54/3/1 39/3/1 53/3/1
f 55/5/1 41/5/1 40/5/1
f 56/5/1 41/5/1 55/5/1
f 57/3/1 54/3/1 53/3/1
f 58/3/1 54/3/1 57/3/1
f 71/1/1 60/1/1 59/1/1
f 72/2/1 61/2/1 60/2/1
f 72/1/1 60/1/1 71/1/1
f 73/1/1 62/1/1 61/1/1
f 73/2/1 61/2/1 72/2/1
f 74/2/1 63/2/1 62/2/1
f 74/1/1 62/1/1 73/1/1
f 75/1/1 64/1/1 63/1/1
f 75/2/1 63/2/1 74/2/1
f 76/2/1 65/2/1 64/2/1
f 76/1/1 64/1/1 75/1/1
f 77/1/1 66/1/1 65/1/1
f 77/2/1 65/2/1 76/2/1
f 78/1/1 66/1/1 77/1/1
f 79/3/1 68/3/1 67/3/1
f 80/3/1 68/3/1 79/3/1
f 81/4/1 70/4/1 69/4/1
f 82/4/1 70/4/1 81/4/1
f 97/5/1 84/5/1 83/5/1
f 98/5/1 84/5/1 97/5/1
f 99/1/1 86/1/1 85/1/1
f 100/2/1 87/2/1 86/2/1
f 100/1/1 86/1/1 99/1/1
f 101/1/1 88/1/1 87/1/1
f 101/2/1 87/2/1 100/2/1
f 102/2/1 89/2/1 88/2/1
f 102/1/1 88/1/1 101/1/1
f 103/1/1 90/1/1 89/1/1
f 103/2/1 89/2/1 102/2/1
f 104/2/1 91/2/1 90/2/1
f 104/1/1 90/1/1 103/1/1
f 105/1/1 92/1/1 91/1/1
f 105/2/1 91/2/1 104/2/1
f 106/1/1 92/1/1 105/1/1
f 107/3/1 94/3/1 93/3/1
f 108/3/1 94/3/1 107/3/1
f 109/4/1 96/4/1 95/4/1
f 110/4/1 96/4/1 109/4/1
f 113/5/1 112/5/1 111/5/1
f 114/5/1 112/5/1 113/5/1
f 117/5/1 116/5/1 115/5/1
f 118/5/1 116/5/1 117/5/1
f 119/5/2 120/5/2 121/5/2
f 121/5/2 120/5/2 122/5/2
f 123/5/2 124/5/2 125/5/2
f 125/5/2 124/5/2 126/5/2
f 127/1/2 128/1/2 139/1/2
f 128/2/2 129/2/2 140/2/2
f 139/1/2 128/1/2 140/1/2
f 129/1/2 130/1/2 141/1/2
f 140/2/2 129/2/2 141/2/2
f 130/2/2 131/2/2 142/2/2
f 141/1/2 130/1/2 142/1/2
f 131/1/2 132/1/2 143/1/2
f 142/2/2 131/2/2 143/2/2
f 132/2/2 133/2/2 144/2/2
f 143/1/2 132/1/2 144/1/2
f 133/1/2 134/1/2 145/1/2
f 144/2/2 133/2/2 145/2/2
f 145/1/2 134/1/2 146/1/2
f 135/3/2 136/3/2 147/3/2
f 147/3/2 136/3/2 148/3/2
f 137/4/2 138/4/2 149/4/2
f 149/4/2 138/4/2 150/4/2
f 151/5/2 152/5/2 165/5/2
f 165/5/2 152/5/2 166/5/2
f 153/1/2 154/1/2 167/1/2
f 154/2/2 155/2/2 168/2/2
f 167/1/2 154/1/2 168/1/2
f 155/1/2 156/1/2 169/1/2
f 168/2/2 155/2/2 169/2/2
f 156/2/2 157/2/2 170/2/2
f 169/1/2 156/1/2 170/1/2
f 157/1/2 158/1/2 171/1/2
f 170/2/2 157/2/2 171/2/2
f 158/2/2 159/2/2 172/2/2
f 171/1/2 158/1/2 172/1/2
f 159/1/2 160/1/2 173/1/2
f 172/2/2 159/2/2 173/2/2
f 173/1/2 160/1/2 174/1/2
f 161/3/2 162/3/2 175/3/2
f 175/3/2 162/3/2 176/3/2
f 163/4/2 164/4/2 177/4/2
f 177/4/2 164/4/2 178/4/2
f 179/3/2 180/3/2 192/3/2
f 192/3/2 180/3/2 193/3/2
f 181/1/2 182/1/2 196/1/2
f 182/2/2 183/2/2 197/2/2
f 196/1/2 182/1/2 197/1/2
f 183/1/2 184/1/2 198/1/2
f 197/2/2 183/2/2 198/2/2
f 184/2/2 185/2/2 199/2/2
f 198/1/2 184/1/2 199/1/2
f 185/1/2 186/1/2 200/1/2
f 199/2/2 185/2/2 200/2/2
f 186/2/2 187/2/2 201/2/2
f 200/1/2 186/1/2 201/1/2
f 187/1/2 188/1/2 202/1/2
f 201/2/2 187/2/2 202/2/2
f 202/1/2 188/1/2 203/1/2
f 189/3/2 190/3/2 204/3/2
f 204/3/2 190/3/2 205/3/2
f 191/3/2 192/3/2 206/3/2
f 192/3/2 193/3/2 206/3/2
f 206/3/2 193/3/2 207/3/2
f 207/3/2 193/3/2 208/3/2
f 194/5/2 195/5/2 209/5/2
f 209/5/2 195/5/2 210/5/2
f 207/3/2 208/3/2 211/3/2
f 211/3/2 208/3/2 212/3/2
f 217/5/2 218/5/2 219/5/2
f 219/5/2 218/5/2 220/5/2
f 213/3/2 214/3/2 221/3/2
f 221/3/2 214/3/2 222/3/2
f 215/3/2 216/3/2 223/3/2
f 223/3/2 216/3/2 224/3/2
f 225/5/2 226/5/2 229/5/2
f 229/5/2 226/5/2 230/5/2
f 227/5/2 228/5/2 231/5/2
f 231/5/2 228/5/2 232/5/2
f 233/5/2 234/5/2 235/5/2
f 235/5/2 234/5/2 236/5/2
f 239/3/3 238/3/3 237/3/3
f 240/3/3 238/3/3 239/3/3
f 243/3/3 242/3/3 241/3/3
f 244/3/3 242/3/3 243/3/3
f 245/3/3 243/3/3 241/3/3
f 246/3/3 243/3/3 245/3/3
f 247/3/3 242/3/3 244/3/3
f 248/3/3 242/3/3 247/3/3
f 249/3/3 245/3/3 241/3/3
f 252/3/3 242/3/3 248/3/3
f 253/3/3 250/3/3 249/3/3
f 254/3/3 252/3/3 251/3/3
f 255/3/3 253/3/3 249/3/3
f 255/3/3 254/3/3 253/3/3
f 255/3/3 249/3/3 241/3/3
f 256/3/3 252/3/3 254/3/3
f 256/3/3 254/3/3 255/3/3
f 256/3/3 242/3/3 252/3/3
f 259/5/3 258/5/3 257/5/3
f 260/5/3 258/5/3 259/5/3
f 263/5/3 262/5/3 261/5/3
f 264/5/3 262/5/3 263/5/3
f 267/5/3 266/5/3 265/5/3
f 268/5/3 266/5/3 267/5/3
f 271/5/3 270/5/3 269/5/3
f 272/5/3 270/5/3 271/5/3
f 275/5/3 274/5/3 273/5/3
f 276/5/3 274/5/3 275/5/3
f 281/3/3 278/3/3 277/3/3
f 282/3/3 278/3/3 281/3/3
f 283/3/3 280/3/3 279/3/3
f 284/3/3 280/3/3 283/3/3
f 289/3/3 286/3/3 285/3/3
f 290/3/3 286/3/3 289/3/3
f 291/3/3 288/3/3 287/3/3
f 292/3/3 288/3/3 291/3/3
f 295/5/3 294/5/3 293/5/3
f 296/5/3 294/5/3 295/5/3
f 299/4/3 298/4/3 297/4/3
f 300/4/3 298/4/3 299/4/3
f 303/4/3 302/4/3 301/4/3
f 304/4/3 302/4/3 303/4/3
f 305/3/4 306/3/4 307/3/4
f 307/3/4 306/3/4 308/3/4
f 305/3/4 307/3/4 309/3/4
f 309/3/4 307/3/4 310/3/4
f 308/3/4 306/3/4 311/3/4
f 311/3/4 306/3/4 312/3/4
f 305/3/4 309/3/4 313/3/4
f 312/3/4 306/3/4 316/3/4
f 313/3/4 314/3/4 317/3/4
f 315/3/4 316/3/4 318/3/4
f 313/3/4 317/3/4 319/3/4
f 317/3/4 318/3/4 319/3/4
f 305/3/4 313/3/4 319/3/4
f 318/3/4 316/3/4 320/3/4
f 319/3/4 318/3/4 320/3/4
f 316/3/4 306/3/4 320/3/4
f 321/3/4 322/3/4 323/3/4
f 323/3/4 322/3/4 324/3/4
f 321/3/4 323/3/4 325/3/4
f 325/3/4 323/3/4 326/3/4
f 324/3/4 322/3/4 327/3/4
f 327/3/4 322/3/4 328/3/4
f 321/3/4 325/3/4 329/3/4
f 328/3/4 322/3/4 332/3/4
f 329/3/4 330/3/4 333/3/4
f 331/3/4 332/3/4 334/3/4
f 329/3/4 333/3/4 335/3/4
f 333/3/4 334/3/4 335/3/4
f 321/3/4 329/3/4 335/3/4
f 334/3/4 332/3/4 336/3/4
f 335/3/4 334/3/4 336/3/4
f 332/3/4 322/3/4 336/3/4
f 337/5/4 338/5/4 339/5/4
f 339/5/4 338/5/4 340/5/4
f 341/5/4 342/5/4 343/5/4
f 343/5/4 342/5/4 344/5/4
f 345/3/4 346/3/4 349/3/4
f 349/3/4 346/3/4 350/3/4
f 347/3/4 348/3/4 351/3/4
f 351/3/4 348/3/4 352/3/4
f 353/3/4 354/3/4 357/3/4
f 357/3/4 354/3/4 358/3/4
f 355/3/4 356/3/4 359/3/4
f 359/3/4 356/3/4 360/3/4
f 361/5/4 362/5/4 363/5/4
f 363/5/4 362/5/4 364/5/4
f 365/5/4 366/5/4 367/5/4
f 367/5/4 366/5/4 368/5/4
f 369/5/4 370/5/4 371/5/4
f 371/5/4 370/5/4 372/5/4
f 373/5/4 374/5/4 375/5/4
f 375/5/4 374/5/4 376/5/4
f 377/5/4 378/5/4 379/5/4
f 379/5/4 378/5/4 380/5/4
f 381/4/4 382/4/4 385/4/4
f 385/4/4 382/4/4 386/4/4
f 383/4/4 384/4/4 387/4/4
f 387/4/4 384/4/4 388/4/4
f 389/5/4 390/5/4 391/5/4
f 391/5/4 390/5/4 392/5/4
f 393/5/4 394/5/4 395/5/4
f 395/5/4 394/5/4 396/5/4
f 397/5/4 398/5/4 399/5/4
f 399/5/4 398/5/4 400/5/4
f 401/5/4 402/5/4 403/5/4
f 403/5/4 402/5/4 404/5/4
f 407/3/5 406/3/5 405/3/5
f 408/3/5 406/3/5 407/3/5
f 411/3/5 410/3/5 409/3/5
f 412/3/5 410/3/5 411/3/5
f 415/1/5 414/1/5 413/1/5
f 416/1/5 414/1/5 415/1/5
f 417/2/5 416/2/5 415/2/5
f 418/2/5 416/2/5 417/2/5
f 419/1/5 418/1/5 417/1/5
f 420/1/5 418/1/5 419/1/5
f 421/2/5 420/2/5 419/2/5
f 422/2/5 420/2/5 421/2/5
f 423/1/5 422/1/5 421/1/5
f 424/1/5 422/1/5 423/1/5
f 425/2/5 424/2/5 423/2/5
f 426/2/5 424/2/5 425/2/5
f 427/1/5 426/1/5 425/1/5
f 428/1/5 426/1/5 427/1/5
f 432/3/5 430/3/5 429/3/5
f 433/3/5 430/3/5 432/3/5
f 435/3/5 433/3/5 432/3/5
f 435/3/5 434/3/5 433/3/5
f 435/3/5 432/3/5 431/3/5
f 436/3/5 434/3/5 435/3/5
f 437/3/5 434/3/5 436/3/5
f 438/3/5 434/3/5 437/3/5
f 439/4/5 437/4/5 436/4/5
f 440/4/5 437/4/5 439/4/5
f 445/1/5 442/1/5 441/1/5
f 446/1/5 442/1/5 445/1/5
f 447/1/5 444/1/5 443/1/5
f 448/1/5 444/1/5 447/1/5
f 449/2/5 446/2/5 445/2/5
f 450/2/5 446/2/5 449/2/5
f 451/2/5 448/2/5 447/2/5
f 452/2/5 448/2/5 451/2/5
f 453/1/5 450/1/5 449/1/5
f 454/1/5 450/1/5 453/1/5
f 455/1/5 452/1/5 451/1/5
f 456/1/5 452/1/5 455/1/5
f 457/2/5 454/2/5 453/2/5
f 458/2/5 454/2/5 457/2/5
f 459/2/5 456/2/5 455/2/5
f 460/2/5 456/2/5 459/2/5
f 461/1/5 458/1/5 457/1/5
f 462/1/5 458/1/5 461/1/5
f 463/1/5 460/1/5 459/1/5
f 464/1/5 460/1/5 463/1/5
f 465/2/5 462/2/5 461/2/5
f 466/2/5 462/2/5 465/2/5
f 467/2/5 464/2/5 463/2/5
f 468/2/5 464/2/5 467/2/5
f 469/1/5 466/1/5 465/1/5
f 470/1/5 466/1/5 469/1/5
f 471/1/5 468/1/5 467/1/5
f 472/1/5 468/1/5 471/1/5
f 478/3/5 474/3/5 473/3/5
f 479/3/5 476/3/5 475/3/5
f 481/5/5 478/5/5 477/5/5
f 482/3/5 474/3/5 478/3/5
f 482/5/5 478/5/5 481/5/5
f 483/3/5 479/3/5 475/3/5
f 483/5/5 480/5/5 479/5/5
f 484/5/5 480/5/5 483/5/5
f 489/5/5 486/5/5 485/5/5
f 491/3/5 474/3/5 482/3/5
f 492/3/5 474/3/5 491/3/5
f 493/3/5 483/3/5 475/3/5
f 494/3/5 483/3/5 493/3/5
f 496/5/5 488/5/5 487/5/5
f 497/5/5 490/5/5 489/5/5
f 502/5/5 496/5/5 495/5/5
f 503/5/5 489/5/5 485/5/5
f 503/5/5 497/5/5 489/5/5
f 504/5/5 497/5/5 503/5/5
f 505/5/5 488/5/5 496/5/5
f 505/5/5 496/5/5 502/5/5
f 506/5/5 488/5/5 505/5/5
f 507/5/5 497/5/5 504/5/5
f 508/4/5 498/4/5 497/4/5
f 508/5/5 497/5/5 507/5/5
f 508/4/5 499/4/5 498/4/5
f 509/4/5 499/4/5 508/4/5
f 510/4/5 501/4/5 500/4/5
f 510/4/5 502/4/5 501/4/5
f 511/5/5 505/5/5 502/5/5
f 511/4/5 502/4/5 510/4/5
f 512/5/5 505/5/5 511/5/5
f 513/5/5 509/5/5 508/5/5
f 514/4/5 499/4/5 509/4/5
f 514/5/5 509/5/5 513/5/5
f 515/4/5 499/4/5 514/4/5
f 516/4/5 510/4/5 500/4/5
f 517/5/5 511/5/5 510/5/5
f 517/4/5 510/4/5 516/4/5
f 518/5/5 511/5/5 517/5/5
f 519/5/5 515/5/5 514/5/5
f 520/4/5 516/4/5 515/4/5
f 520/5/5 515/5/5 519/5/5
f 521/5/5 517/5/5 516/5/5
f 521/4/5 516/4/5 520/4/5
f 522/5/5 517/5/5 521/5/5
f 523/5/5 521/5/5 520/5/5
f 524/5/5 521/5/5 523/5/5
f 525/1/6 526/1/6 529/1/6
f 529/1/6 526/1/6 530/1/6
f 527/1/6 528/1/6 531/1/6
f 531/1/6 528/1/6 532/1/6
f 529/2/6 530/2/6 533/2/6
f 533/2/6 530/2/6 534/2/6
f 531/2/6 532/2/6 535/2/6
f 535/2/6 532/2/6 536/2/6
f 533/1/6 534/1/6 537/1/6
f 537/1/6 534/1/6 538/1/6
f 535/1/6 536/1/6 539/1/6
f 539/1/6 536/1/6 540/1/6
f 537/2/6 538/2/6 541/2/6
f 541/2/6 538/2/6 542/2/6
f 539/2/6 540/2/6 543/2/6
f 543/2/6 540/2/6 544/2/6
f 541/1/6 542/1/6 545/1/6
f 545/1/6 542/1/6 546/1/6
f 543/1/6 544/1/6 547/1/6
f 547/1/6 544/1/6 548/1/6
f 545/2/6 546/2/6 549/2/6
f 549/2/6 546/2/6 550/2/6
f 547/2/6 548/2/6 551/2/6
f 551/2/6 548/2/6 552/2/6
f 549/1/6 550/1/6 553/1/6
f 553/1/6 550/1/6 554/1/6
f 551/1/6 552/1/6 555/1/6
f 555/1/6 552/1/6 556/1/6
f 557/3/6 558/3/6 562/3/6
f 559/3/6 560/3/6 563/3/6
f 561/5/6 562/5/6 565/5/6
f 562/3/6 558/3/6 566/3/6
f 565/5/6 562/5/6 566/5/6
f 559/3/6 563/3/6 567/3/6
f 563/5/6 564/5/6 567/5/6
f 567/5/6 564/5/6 568/5/6
f 569/5/6 570/5/6 573/5/6
f 566/3/6 558/3/6 575/3/6
f 575/3/6 558/3/6 576/3/6
f 559/3/6 567/3/6 577/3/6
f 577/3/6 567/3/6 578/3/6
f 571/5/6 572/5/6 580/5/6
f 573/5/6 574/5/6 581/5/6
f 579/5/6 580/5/6 586/5/6
f 569/5/6 573/5/6 587/5/6
f 573/5/6 581/5/6 587/5/6
f 587/5/6 581/5/6 588/5/6
f 580/5/6 572/5/6 589/5/6
f 586/5/6 580/5/6 589/5/6
f 589/5/6 572/5/6 590/5/6
f 588/5/6 581/5/6 591/5/6
f 581/4/6 582/4/6 592/4/6
f 591/5/6 581/5/6 592/5/6
f 582/4/6 583/4/6 592/4/6
f 592/4/6 583/4/6 593/4/6
f 584/4/6 585/4/6 594/4/6
f 585/4/6 586/4/6 594/4/6
f 586/5/6 589/5/6 595/5/6
f 594/4/6 586/4/6 595/4/6
f 595/5/6 589/5/6 596/5/6
f 592/5/6 593/5/6 597/5/6
f 593/4/6 583/4/6 598/4/6
f 597/5/6 593/5/6 598/5/6
f 598/4/6 583/4/6 599/4/6
f 584/4/6 594/4/6 600/4/6
f 594/5/6 595/5/6 601/5/6
f 600/4/6 594/4/6 601/4/6
f 601/5/6 595/5/6 602/5/6
f 598/5/6 599/5/6 603/5/6
f 599/4/6 600/4/6 604/4/6
f 603/5/6 599/5/6 604/5/6
f 600/5/6 601/5/6 605/5/6
f 604/4/6 600/4/6 605/4/6
f 605/5/6 601/5/6 606/5/6
f 604/5/6 605/5/6 607/5/6
f 607/5/6 605/5/6 608/5/6
f 609/1/6 610/1/6 611/1/6
f 611/1/6 610/1/6 612/1/6
f 611/2/6 612/2/6 613/2/6
f 613/2/6 612/2/6 614/2/6
f 613/1/6 614/1/6 615/1/6
f 615/1/6 614/1/6 616/1/6
f 615/2/6 616/2/6 617/2/6
f 617/2/6 616/2/6 618/2/6
f 617/1/6 618/1/6 619/1/6
f 619/1/6 618/1/6 620/1/6
f 619/2/6 620/2/6 621/2/6
f 621/2/6 620/2/6 622/2/6
f 621/1/6 622/1/6 623/1/6
f 623/1/6 622/1/6 624/1/6
f 625/3/6 626/3/6 628/3/6
f 628/3/6 626/3/6 629/3/6
f 628/3/6 629/3/6 631/3/6
f 629/3/6 630/3/6 631/3/6
f 627/3/6 628/3/6 631/3/6
f 631/3/6 630/3/6 632/3/6
f 632/3/6 630/3/6 633/3/6
f 633/3/6 630/3/6 634/3/6
f 632/4/6 633/4/6 635/4/6
f 635/4/6 633/4/6 636/4/6
f 637/3/6 638/3/6 639/3/6
f 639/3/6 638/3/6 640/3/6
f 641/3/6 642/3/6 643/3/6
f 643/3/6 642/3/6 644/3/6
